<?xml version="1.0" encoding="UTF-8" standalone="no"?><!DOCTYPE svg PUBLIC "-//W3C//DTD SVG 1.1//EN" "http://www.w3.org/Graphics/SVG/1.1/DTD/svg11.dtd"><svg width="100%" height="100%" viewBox="0 0 480 65" version="1.1" xmlns="http://www.w3.org/2000/svg" xmlns:xlink="http://www.w3.org/1999/xlink" xml:space="preserve" style="fill-rule:evenodd;clip-rule:evenodd;stroke-linejoin:round;stroke-miterlimit:1.41421;"><rect id="ArtBoard1" x="0" y="0" width="480" height="65" style="fill:none;"/><g><path d="M2.95,32.8l0,-0.4c0,-14.4 9,-24.5 21,-24.5c6.6,0 10.8,2.4 14.6,5.9l0.2,0.2l-3.5,4.3l-0.2,-0.2c-2.9,-2.8 -6.5,-4.9 -11.2,-4.9c-8.5,0 -15.1,7.8 -15.1,19.1l0,0.3c0,11.5 6.6,19.3 15.1,19.3c4.8,0 8.2,-2 11.5,-5.2l0.2,-0.2l3.4,3.9l-0.2,0.2c-4,4 -8.6,6.6 -15.2,6.6c-11.8,-0.1 -20.6,-9.9 -20.6,-24.4m47.2,-24.2l5.6,0l0,42.6l22,0l0,5.2l-27.6,0l0,-47.8l0,0Zm31.9,24.2l0,-0.5c0,-14 8.5,-24.5 20.7,-24.5c12.2,0 20.5,10.4 20.5,24.3l0,0.5c0,14 -8.4,24.5 -20.6,24.5c-12.3,0.1 -20.6,-10.3 -20.6,-24.3m35.5,0l0,-0.5c0,-11.3 -6.4,-19.3 -14.9,-19.3c-8.5,0 -14.8,7.9 -14.8,19.2l0,0.5c0,11.3 6.4,19.3 14.9,19.3c8.5,0 14.8,-7.9 14.8,-19.2m18.5,5.7l0,-29.9l5.6,0l0,29.8c0,8.8 4.4,13.6 11.7,13.6c7.1,0 11.6,-4.5 11.6,-13.4l0,-30l5.6,0l0,29.7c0,12.3 -6.9,18.9 -17.3,18.9c-10.3,0 -17.2,-6.6 -17.2,-18.7m49.4,-29.9l13.7,0c13.3,0 22.5,9.6 22.5,23.7l0,0.5c0,14 -9.2,23.7 -22.5,23.7l-13.7,0l0,-47.9Zm5.6,5.2l0,37.4l7.9,0c10.2,0 16.8,-7.4 16.8,-18.4l0,-0.5c0,-11.1 -6.7,-18.5 -16.8,-18.5l-7.9,0Z" style="fill-rule:nonzero;"/><path d="M283.85,56.2l21.1,0l0,-1.6c-6.4,-0.2 -7,-1.2 -7,-4l0,-17.9l22.3,0l0,17.9c0,2.8 -0.6,3.8 -7,4l0,1.6l21.1,0l0,-1.6c-6,-0.2 -7.5,-1.3 -7.5,-4l0,-36.1c0,-2.6 1.5,-3.8 7.5,-4l0,-1.5l-21.1,0l0,1.5c6.3,0.2 7,1.3 7,4l0,16.2l-22.3,0l0,-16.2c0,-2.7 0.6,-3.8 7,-4l0,-1.5l-21.1,0l0,1.5c6,0.2 7.6,1.4 7.6,4l0,36.1c0,2.6 -1.5,3.8 -7.6,4l0,1.6Zm59.4,0l40.4,0l0.3,-15.1l-1.5,-0.1c-3.1,8.9 -6.2,13.1 -15.5,13.1l-9.5,0l0,-21.4l4.2,0c5.5,0 7.9,1.2 9.7,8.6l1.4,0l0,-19.3l-1.4,0c-1.8,7.4 -4.2,8.7 -9.7,8.7l-4.2,0l0,-19.7l9.5,0c7.9,0 10.3,3.5 13.2,12l1.5,-0.1l-0.2,-13.9l-38.2,0l0,1.5c6,0.2 7.6,1.5 7.6,4l0,36c0,2.6 -1.5,3.8 -7.6,4l0,1.7Zm79.5,-7.1c1.4,3.9 0.4,5.3 -5.9,5.6l0,1.5l20.9,0l0,-1.5c-5.3,-0.7 -6.5,-2.2 -8.1,-6.5l-14.7,-40.3l-2.4,0l-14.5,36.2c-2.8,6.9 -4.7,9.5 -9.4,10.6l0,1.5l15.6,0l0,-1.5c-6.2,-1 -6.9,-2.6 -4,-10.1l2.4,-6.3l16.2,0l3.9,10.8Zm-19.2,-12.8l7.6,-19.7l0.3,0l6.8,19.7l-14.7,0Zm41.7,19.9l22.7,0l0,-1.6c-6.2,-0.2 -8.1,-1.4 -8.1,-4l0,-39.6l3.5,0c6,0 9.1,4.5 12.2,12.5l1.5,-0.1l-0.5,-14.3l-40.2,0l-0.4,14.3l1.5,0.1c3.4,-8.5 6.4,-12.5 12.2,-12.5l3.5,0l0,39.6c0,2.6 -1.9,3.8 -8.1,4l0,1.6l0.2,0Z" style="fill-rule:nonzero;"/><path d="M251.25,29.1c-3.2,-3.5 -5.8,-6.8 -5.8,-10.4c0,-4.1 2.6,-6.7 6,-6.7c4,0 5.8,2.7 5.8,7c0.1,3.9 -1.1,6.7 -6,10.1m-4.6,3.5c4.7,4.1 9.4,9.9 12.2,14.8c-3,3.5 -5.7,5.4 -9.9,5.4c-5.4,0 -9.2,-4 -9.2,-9.4c0,-5.1 2.1,-8.2 6.9,-10.8m15.8,9.5c-2.4,-4 -6,-8.4 -9.9,-11.9c7.2,-3.9 10,-6.8 10,-11.4c0,-4.6 -4,-8.4 -10.1,-8.4c-7,0 -12,4.5 -12,11.1c0,4 2.4,6.8 5.2,10.1c-7.2,2.5 -12.4,6.3 -12.4,13.1c0,5.7 3.9,11.8 13.4,11.8c5.6,0 9.9,-3.1 13.3,-7.4c2.7,4.9 4.5,7.4 9.2,7.4c2.8,0 5.6,-1.7 9.1,-5l-0.8,-1c-2.1,1.7 -3.3,2.1 -4.9,2.1c-3.1,0 -5.3,-2.4 -8.8,-8.8c2.4,-4.8 5,-8.5 8,-9.9l0.2,0.3c-0.3,0.6 -0.5,1.1 -0.5,1.9c0,1.7 1.5,3.2 3.5,3.2c2.4,0 3.8,-1.7 3.8,-3.9c0,-2.7 -1.7,-4.7 -4.9,-4.7c-4.3,0 -8.1,5 -11.4,11.4" style="fill:#97c22d;fill-rule:nonzero;"/></g></svg>